<?xml version="1.0" encoding="UTF-8"?>
<svg width="217px" height="217px" viewBox="0 0 217 217" version="1.1" xmlns="http://www.w3.org/2000/svg" xmlns:xlink="http://www.w3.org/1999/xlink">
    <title>Artboard</title>
    <defs>
        <linearGradient x1="100%" y1="0%" x2="13.6810124%" y2="92.0138889%" id="linearGradient-1">
            <stop stop-color="#CB04E4" offset="0%"></stop>
            <stop stop-color="#83D44A" offset="100%"></stop>
        </linearGradient>
    </defs>
    <g id="Artboard" stroke="none" stroke-width="1" fill="none" fill-rule="evenodd">
        <g id="np_social_676378_000000" transform="translate(23.000000, 23.000000)" fill="url(#linearGradient-1)" fill-rule="nonzero">
            <path d="M91.1631179,75.3153033 L95.1965454,91.0074907 L79.7725051,95.1042039 L75.3409463,79.3595789 L91.1631179,75.3153033 Z M170.931176,81.8424569 L170.931176,81.8598147 C171.865969,105.190123 163.24508,127.893845 147.094264,144.71833 C130.943448,161.556591 108.646947,171.034473 85.3626506,170.999906 L10.5091913,170.999906 C7.68752917,170.982453 5.00430896,169.836762 3.03093583,167.805781 C1.05751839,165.792175 -0.0330882213,163.06684 0.00076523062,160.237429 L0.00076523062,85.1938268 C0.191986217,55.09373 16.1005333,27.2857804 41.9453841,11.9588791 C67.7729518,-3.38624217 99.728479,-3.99371895 126.145001,10.309804 C152.543796,24.631058 169.525973,51.7799819 170.877155,81.8649696 L170.931176,81.8424569 Z M131.220421,91.0079351 C129.922107,86.0779077 124.901904,83.1098481 119.96825,84.394126 L113.095789,86.1647409 L109.010423,70.4725535 L115.882885,68.7019387 C120.175957,66.983406 122.547506,62.3658714 121.422333,57.87001 C120.314443,53.3741486 116.038875,50.4056446 111.451326,50.926466 L104.578864,52.6970808 L102.813154,45.80553 C101.116709,41.5179082 96.4946376,39.1397277 92.0112296,40.2680259 C87.5278216,41.3789929 84.5675403,45.6491058 85.086919,50.2493982 L86.8526293,57.140949 L70.9092103,61.4633218 L69.1435,54.571771 C68.8319082,51.9158488 67.4124445,49.5204261 65.2312756,48.0099553 C63.0501067,46.4823756 60.3149043,45.9789742 57.7357371,46.638622 C55.1564369,47.2808942 52.9926397,49.0168025 51.7806084,51.377563 C50.5688429,53.7557435 50.4303567,56.5333389 51.4170787,59.0156837 L53.182789,65.9072344 L46.3103277,67.6778493 C43.6790896,67.9729488 41.2902579,69.396382 39.766688,71.5836095 C38.260667,73.788168 37.7586601,76.5136368 38.3991533,79.0999681 C39.0396464,81.6864327 40.7707463,83.8735713 43.1422506,85.0889693 C45.4965162,86.3041006 48.2660189,86.4429715 50.7414876,85.4535042 L57.613949,83.6828894 L61.6473765,99.8958981 L54.7749151,101.666513 C52.1436771,101.97897 49.7548454,103.402377 48.2312755,105.589604 C46.7252545,107.776832 46.2232475,110.519632 46.8637407,113.105963 C47.5042339,115.692427 49.2353337,117.862235 51.6068381,119.077633 C53.9611037,120.292764 56.7306064,120.431635 59.2060751,119.442172 L66.4764904,117.671557 L68.2422007,124.563108 C68.5537925,127.201655 69.9732562,129.597122 72.1544251,131.124924 C74.335594,132.635128 77.0707964,133.13853 79.6499636,132.496257 C82.2292638,131.853985 84.393061,130.118077 85.6050923,127.739985 C86.8168577,125.37918 86.9553439,122.601985 85.9686219,120.11964 L84.2029116,113.228089 L99.851632,108.784221 L101.617342,115.675772 C101.911624,118.314319 103.331115,120.709786 105.512284,122.237588 C107.710736,123.747792 110.428655,124.251193 113.007822,123.608921 C115.587122,122.966649 117.768203,121.23074 118.980234,118.852649 C120.191999,116.491844 120.330486,113.714648 119.343764,111.232304 L117.699256,104.340753 L124.571718,102.570138 C127.012532,101.962572 129.106975,100.38291 130.353572,98.2130585 C131.617276,96.025831 131.928859,93.4221242 131.2191,91.0091038 L131.220421,91.0079351 Z" id="Shape"></path>
        </g>
    </g>
</svg>